<svg width="23" height="18" viewBox="0 0 23 18" fill="none" xmlns="http://www.w3.org/2000/svg">
<path d="M19.8165 1.00225C19.2807 0.978781 18.7345 1.1389 18.2843 1.47147L17.076 2.3635L11.5648 6.4378L6.1052 2.40218C6.02912 2.32783 5.92867 2.28356 5.82247 2.27757H5.93247L4.84793 1.47491C4.39739 1.14151 3.85036 0.980494 3.31395 1.00397C2.77755 1.02745 2.25219 1.23507 1.84442 1.63733C1.32643 2.14803 1.00481 2.86235 1.00481 3.64569V5.15647C0.998397 5.19949 0.998397 5.24322 1.00481 5.28624V15.5652C1.00481 16.4105 1.69949 17.1052 2.54481 17.1052H5.84481C5.9615 17.1052 6.07341 17.0588 6.15592 16.9763C6.23844 16.8938 6.2848 16.7819 6.28481 16.6652V9.34936L11.3036 13.0593C11.3792 13.1151 11.4708 13.1452 11.5648 13.1452C11.6588 13.1452 11.7504 13.1151 11.8261 13.0593L16.8448 9.34936V16.6652C16.8448 16.7819 16.8912 16.8938 16.9737 16.9763C17.0562 17.0588 17.1681 17.1052 17.2848 17.1052H20.5848C21.4301 17.1052 22.1248 16.4105 22.1248 15.5652V5.27764C22.1298 5.23971 22.1298 5.20128 22.1248 5.16335V3.64569C22.1248 2.87197 21.8126 2.16097 21.3015 1.64936C21.2868 1.63459 21.2818 1.6305 21.2878 1.63647C21.2869 1.63561 21.2861 1.63475 21.2852 1.63389C20.8775 1.23252 20.3523 1.02573 19.8165 1.00225ZM19.7684 1.88139C20.1012 1.89444 20.4238 2.02065 20.6682 2.26124C20.6765 2.26945 20.6826 2.27566 20.6785 2.27155C21.0289 2.62235 21.2448 3.10821 21.2448 3.64569V5.0035L17.7248 7.60483V3.02522C17.725 3.01031 17.7244 2.99539 17.7231 2.98054L18.8068 2.1796H18.8076C19.093 1.96877 19.4356 1.86835 19.7684 1.88139ZM3.36208 1.88397C3.69522 1.87093 4.039 1.97086 4.32458 2.18218L5.40653 2.98225C5.40526 2.99654 5.40468 3.01088 5.40481 3.02522V7.60483L1.88481 5.0035V3.64569C1.88481 3.10199 2.10558 2.61552 2.46231 2.26382C2.70662 2.0228 3.02893 1.89701 3.36208 1.88397ZM16.8448 3.6285V8.25538L11.5648 12.1578L6.28481 8.25538V3.62936L11.3036 7.33928C11.3792 7.39511 11.4708 7.42523 11.5648 7.42523C11.6588 7.42523 11.7504 7.39511 11.8261 7.33928L16.8448 3.6285ZM1.88481 6.09749L5.40481 8.69968V16.2252H2.54481C2.17485 16.2252 1.88481 15.9352 1.88481 15.5652V6.09749ZM21.2448 6.09749V15.5652C21.2448 15.9352 20.9548 16.2252 20.5848 16.2252H17.7248V8.69968L21.2448 6.09749Z" fill="#53618B" stroke="#53618B"/>
</svg>
