<svg width="24" height="24" viewBox="0 0 24 24" fill="none" xmlns="http://www.w3.org/2000/svg">
<path d="M14.4566 22.3686C14.4566 22.6985 14.7702 22.9361 15.0838 22.8437C23.2373 20.4662 25.7854 10.064 19.6704 4.11963C13.5554 -1.82469 3.36354 1.14727 1.32504 9.46906C-0.0978596 15.2778 3.27784 21.1842 8.96904 22.8437C9.28264 22.9361 9.59624 22.6985 9.59624 22.3686V20.0423C8.20084 20.4681 6.71864 19.7217 6.21544 18.3397C5.94154 17.4972 5.48644 16.7264 4.88274 16.0827C7.67554 16.7657 7.72454 18.5971 9.62564 17.7358C9.68304 17.0934 9.89504 16.475 10.2429 15.9342C8.08714 15.6867 5.81374 15.3402 5.81374 11.5786C5.79504 10.6066 6.14564 9.66433 6.79364 8.94548C6.49854 8.09985 6.53354 7.17241 6.89164 6.35193C7.24974 5.53146 7.70494 6.08464 9.56684 7.34181C11.17 6.8945 12.8632 6.8945 14.4664 7.34181C16.3185 6.07474 17.1318 6.35193 17.1318 6.35193C17.4899 7.17241 17.5249 8.09985 17.2298 8.94548C17.8786 9.66372 18.2294 10.6064 18.2097 11.5786C18.2097 15.3501 15.9363 15.6867 13.7706 15.9243C14.2344 16.5998 14.4683 17.4093 14.437 18.2308L14.4566 22.3686Z" stroke="#53618B" stroke-width="1.5" stroke-linecap="round" stroke-linejoin="round"/>
</svg>
