<svg width="347" height="119" viewBox="0 0 347 119" fill="none" xmlns="http://www.w3.org/2000/svg">
<ellipse cx="57" cy="55" rx="57" ry="55" fill="#53618B"/>
<ellipse cx="57" cy="45" rx="46.6364" ry="45" fill="#8172B7"/>
<path d="M14.5506 59.4347V53.1034L39.8756 41.9518V49.2363L22.5366 56.1971L22.7704 55.8194V56.7187L22.5366 56.341L39.8756 63.3018V70.5863L14.5506 59.4347ZM75.2505 32.4369L63.3795 76.5398H56.7784L68.6495 32.4369H75.2505ZM105.76 59.4347L80.4352 70.5863V63.3018L97.7742 56.341L97.5403 56.7187V55.8194L97.7742 56.1971L80.4352 49.2363V41.9518L105.76 53.1034V59.4347Z" fill="#2A2B38"/>
<path d="M136.551 70H128.205L140.922 33.1636H150.958L163.657 70H155.311L146.084 41.5813H145.796L136.551 70ZM136.029 55.5209H155.742V61.6003H136.029V55.5209Z" fill="#A07DD4"/>
<path d="M168.058 80.3602V42.3727H175.612V47.0132H175.954C176.29 46.2698 176.775 45.5144 177.411 44.7469C178.058 43.9675 178.898 43.32 179.929 42.8044C180.972 42.2768 182.267 42.013 183.814 42.013C185.828 42.013 187.687 42.5406 189.39 43.5958C191.092 44.639 192.453 46.2158 193.473 48.3263C194.492 50.4247 195.001 53.0567 195.001 56.2223C195.001 59.304 194.504 61.9061 193.509 64.0285C192.525 66.1389 191.182 67.7397 189.48 68.8309C187.789 69.9101 185.894 70.4497 183.796 70.4497C182.309 70.4497 181.044 70.2038 180.001 69.7122C178.97 69.2206 178.124 68.603 177.465 67.8596C176.805 67.1042 176.302 66.3427 175.954 65.5753H175.72V80.3602H168.058ZM175.558 56.1864C175.558 57.8291 175.786 59.2621 176.242 60.4851C176.697 61.7082 177.357 62.6615 178.22 63.345C179.083 64.0165 180.133 64.3522 181.368 64.3522C182.615 64.3522 183.67 64.0105 184.533 63.327C185.397 62.6315 186.05 61.6722 186.494 60.4492C186.95 59.2141 187.177 57.7932 187.177 56.1864C187.177 54.5916 186.956 53.1886 186.512 51.9775C186.068 50.7664 185.415 49.8191 184.551 49.1357C183.688 48.4522 182.627 48.1104 181.368 48.1104C180.121 48.1104 179.065 48.4402 178.202 49.0997C177.351 49.7592 176.697 50.6945 176.242 51.9056C175.786 53.1167 175.558 54.5436 175.558 56.1864ZM212.7 70.5396C209.858 70.5396 207.412 69.964 205.362 68.8129C203.323 67.6498 201.752 66.007 200.649 63.8846C199.546 61.7502 198.994 59.2261 198.994 56.3123C198.994 53.4704 199.546 50.9763 200.649 48.8299C201.752 46.6835 203.305 45.0107 205.308 43.8116C207.322 42.6125 209.684 42.013 212.394 42.013C214.217 42.013 215.914 42.3068 217.485 42.8943C219.067 43.4699 220.446 44.3393 221.622 45.5024C222.809 46.6655 223.732 48.1284 224.391 49.8911C225.051 51.6418 225.381 53.6922 225.381 56.0425V58.1469H202.052V53.3985H218.168C218.168 52.2953 217.928 51.318 217.449 50.4667C216.969 49.6153 216.304 48.9498 215.452 48.4702C214.613 47.9785 213.636 47.7327 212.52 47.7327C211.357 47.7327 210.326 48.0025 209.427 48.5421C208.539 49.0697 207.844 49.7832 207.34 50.6825C206.837 51.5698 206.579 52.5591 206.567 53.6503V58.1649C206.567 59.5319 206.819 60.713 207.322 61.7082C207.838 62.7035 208.563 63.4709 209.499 64.0105C210.434 64.5501 211.543 64.8199 212.826 64.8199C213.677 64.8199 214.457 64.7 215.164 64.4602C215.872 64.2203 216.477 63.8606 216.981 63.381C217.485 62.9013 217.868 62.3138 218.132 61.6183L225.219 62.0859C224.859 63.7887 224.122 65.2755 223.006 66.5466C221.903 67.8056 220.476 68.7889 218.726 69.4964C216.987 70.1919 214.979 70.5396 212.7 70.5396ZM237.324 62.05L237.342 52.8589H238.457L247.306 42.3727H256.102L244.213 56.2583H242.396L237.324 62.05ZM230.381 70V33.1636H238.043V70H230.381ZM247.648 70L239.518 57.967L244.626 52.5531L256.623 70H247.648ZM282.848 50.2508L275.833 50.6825C275.713 50.0829 275.455 49.5433 275.059 49.0637C274.664 48.5721 274.142 48.1824 273.495 47.8946C272.859 47.5948 272.098 47.4449 271.21 47.4449C270.023 47.4449 269.022 47.6967 268.207 48.2004C267.391 48.692 266.983 49.3515 266.983 50.1789C266.983 50.8384 267.247 51.396 267.775 51.8516C268.302 52.3073 269.208 52.673 270.491 52.9488L275.491 53.956C278.177 54.5076 280.18 55.395 281.499 56.618C282.818 57.8411 283.477 59.4479 283.477 61.4384C283.477 63.2491 282.944 64.8379 281.876 66.2048C280.821 67.5718 279.37 68.639 277.524 69.4064C275.689 70.1619 273.573 70.5396 271.174 70.5396C267.517 70.5396 264.603 69.7782 262.433 68.2553C260.275 66.7205 259.009 64.634 258.638 61.996L266.174 61.6003C266.402 62.7155 266.954 63.5668 267.829 64.1544C268.704 64.73 269.825 65.0177 271.192 65.0177C272.535 65.0177 273.615 64.7599 274.43 64.2443C275.257 63.7167 275.677 63.0392 275.689 62.2118C275.677 61.5164 275.383 60.9468 274.808 60.5031C274.232 60.0475 273.345 59.6997 272.146 59.4599L267.361 58.5066C264.663 57.967 262.655 57.0317 261.336 55.7007C260.029 54.3697 259.375 52.673 259.375 50.6105C259.375 48.8359 259.855 47.307 260.814 46.024C261.785 44.7409 263.146 43.7517 264.897 43.0562C266.66 42.3607 268.722 42.013 271.084 42.013C274.574 42.013 277.32 42.7504 279.322 44.2253C281.337 45.7002 282.512 47.7087 282.848 50.2508ZM295.964 54.028V70H288.302V33.1636H295.748V47.2471H296.072C296.696 45.6163 297.703 44.3392 299.094 43.4159C300.485 42.4806 302.23 42.013 304.328 42.013C306.247 42.013 307.919 42.4327 309.346 43.2721C310.785 44.0994 311.9 45.2925 312.692 46.8514C313.495 48.3982 313.891 50.2508 313.879 52.4092V70H306.217V53.7762C306.229 52.0734 305.797 50.7484 304.922 49.8012C304.058 48.8539 302.847 48.3802 301.288 48.3802C300.245 48.3802 299.322 48.6021 298.518 49.0457C297.727 49.4894 297.103 50.1369 296.648 50.9883C296.204 51.8276 295.976 52.8409 295.964 54.028ZM327.787 70.5216C326.024 70.5216 324.453 70.2158 323.074 69.6043C321.695 68.9808 320.604 68.0635 319.801 66.8524C319.009 65.6293 318.614 64.1064 318.614 62.2838C318.614 60.7489 318.896 59.4599 319.459 58.4167C320.023 57.3735 320.79 56.5341 321.761 55.8986C322.733 55.2631 323.836 54.7834 325.071 54.4597C326.318 54.1359 327.625 53.9081 328.992 53.7762C330.599 53.6083 331.894 53.4524 332.877 53.3085C333.86 53.1526 334.574 52.9248 335.017 52.625C335.461 52.3253 335.683 51.8816 335.683 51.294V51.1861C335.683 50.047 335.323 49.1656 334.604 48.5421C333.896 47.9186 332.889 47.6068 331.582 47.6068C330.203 47.6068 329.106 47.9126 328.29 48.5241C327.475 49.1237 326.936 49.8791 326.672 50.7904L319.585 50.2148C319.945 48.5361 320.652 47.0852 321.707 45.8621C322.763 44.627 324.124 43.6797 325.79 43.0202C327.469 42.3487 329.412 42.013 331.618 42.013C333.153 42.013 334.622 42.1929 336.025 42.5526C337.44 42.9123 338.693 43.4699 339.784 44.2253C340.887 44.9808 341.756 45.952 342.392 47.1392C343.027 48.3143 343.345 49.7232 343.345 51.366V70H336.079V66.1689H335.863C335.419 67.0322 334.826 67.7937 334.082 68.4532C333.339 69.1007 332.445 69.6103 331.402 69.982C330.359 70.3417 329.154 70.5216 327.787 70.5216ZM329.981 65.2336C331.108 65.2336 332.104 65.0117 332.967 64.5681C333.83 64.1124 334.508 63.5009 334.999 62.7335C335.491 61.966 335.737 61.0967 335.737 60.1254V57.1936C335.497 57.3495 335.167 57.4934 334.748 57.6253C334.34 57.7452 333.878 57.8591 333.363 57.967C332.847 58.063 332.331 58.1529 331.816 58.2368C331.3 58.3088 330.833 58.3747 330.413 58.4347C329.514 58.5666 328.728 58.7764 328.057 59.0642C327.385 59.352 326.864 59.7417 326.492 60.2333C326.12 60.713 325.934 61.3125 325.934 62.032C325.934 63.0752 326.312 63.8726 327.067 64.4242C327.835 64.9638 328.806 65.2336 329.981 65.2336Z" fill="#C5C4CA"/>
</svg>
