<svg width="25" height="18" viewBox="0 0 25 18" fill="none" xmlns="http://www.w3.org/2000/svg">
<path d="M12.49 12.4454C12.5365 11.6985 12.3438 10.9564 11.9404 10.3287C11.537 9.70105 10.9443 9.22124 10.25 8.96025C10.8168 8.70083 11.2897 8.26979 11.6033 7.72681C11.9168 7.18383 12.0555 6.5558 12 5.9297C12 2.82844 9.47 2.12131 7.63 2.091H1V16.9205H7.2C11.91 16.9205 12.49 13.799 12.49 12.4454ZM3.68 4.8084H7.35C7.73814 4.80839 8.11053 4.96345 8.38593 5.23976C8.66132 5.51606 8.81736 5.89118 8.82 6.28326C8.82 6.6771 8.66513 7.05481 8.38945 7.3333C8.11377 7.61178 7.73987 7.76823 7.35 7.76823H3.68V4.8084ZM3.68 10.2533H7.35C7.88043 10.2533 8.38914 10.4661 8.76421 10.845C9.13929 11.2239 9.35 11.7378 9.35 12.2737C9.35 12.539 9.29827 12.8017 9.19776 13.0468C9.09725 13.2919 8.94993 13.5147 8.76421 13.7023C8.5785 13.8899 8.35802 14.0387 8.11537 14.1402C7.87272 14.2418 7.61264 14.294 7.35 14.294H3.68V10.2533Z" stroke="#6272A4" stroke-width="1.5" stroke-linecap="round" stroke-linejoin="round"/>
<path d="M15.67 1H21.54V3.23251H15.67V1Z" stroke="#6272A4" stroke-width="1.5" stroke-linecap="round" stroke-linejoin="round"/>
<path d="M20.7 13.9506C20.5728 13.9513 20.4509 14.002 20.36 14.092C19.8262 14.4737 19.1836 14.6688 18.53 14.6476C18.1818 14.6691 17.833 14.6147 17.5075 14.488C17.1819 14.3612 16.8872 14.1651 16.6434 13.9131C16.3996 13.661 16.2123 13.3588 16.0944 13.0271C15.9765 12.6955 15.9306 12.342 15.96 11.9908H23.02C23.1499 11.9908 23.2746 11.9387 23.3665 11.8458C23.4584 11.753 23.51 11.6271 23.51 11.4958C23.51 5.78828 19.51 5.56604 18.62 5.56604C16.08 5.56604 13.24 6.82877 13.24 11.3241C13.24 16.0517 16.62 16.9306 18.62 16.9306C19.4961 16.9977 20.3743 16.8305 21.166 16.4456C21.9578 16.0608 22.6352 15.472 23.13 14.7385C23.1788 14.6638 23.2067 14.5772 23.2106 14.4877C23.2145 14.3983 23.1944 14.3095 23.1523 14.2307C23.1103 14.152 23.0479 14.0862 22.9717 14.0404C22.8956 13.9946 22.8086 13.9706 22.72 13.9708L20.7 13.9506ZM16.16 9.84922C16.2351 9.25983 16.531 8.72193 16.9867 8.34614C17.4424 7.97035 18.0233 7.78523 18.61 7.82885C19.1967 7.78523 19.7776 7.97035 20.2333 8.34614C20.689 8.72193 20.9848 9.25983 21.06 9.84922H16.16Z" stroke="#6272A4" stroke-width="1.5" stroke-linecap="round" stroke-linejoin="round"/>
</svg>
