<svg width="25" height="24" viewBox="0 0 25 24" fill="none" xmlns="http://www.w3.org/2000/svg">
<path d="M5.91 22.4664H1.05V8.39452H5.91V22.4664ZM16 12.9808C15.4324 12.9808 14.8881 13.2085 14.4868 13.6139C14.0855 14.0193 13.86 14.5692 13.86 15.1425V22.4664H8.75V8.39452H13.86V10.0007C15.0577 8.97645 16.5709 8.40501 18.14 8.38442C21.31 8.38442 23.51 10.7584 23.51 15.2638V22.4664H18.14V15.1425C18.1413 14.8578 18.0869 14.5756 17.98 14.3122C17.873 14.0487 17.7156 13.8092 17.5168 13.6074C17.3179 13.4056 17.0816 13.2454 16.8213 13.1362C16.561 13.0269 16.2819 12.9706 16 12.9707V12.9808ZM6 3.52544C6 4.02493 5.85338 4.5132 5.57868 4.92851C5.30397 5.34382 4.91353 5.66751 4.45671 5.85866C3.99989 6.0498 3.49723 6.09982 3.01228 6.00237C2.52732 5.90493 2.08187 5.6644 1.73223 5.31121C1.3826 4.95802 1.1445 4.50802 1.04804 4.01813C0.951575 3.52824 1.00108 3.02045 1.1903 2.55899C1.37952 2.09752 1.69995 1.7031 2.11108 1.4256C2.5222 1.1481 3.00555 0.99998 3.5 0.99998C4.15957 1.00531 4.79033 1.27374 5.25485 1.74677C5.71938 2.21981 5.98002 2.85913 5.98 3.52544H6Z" stroke="#6272A4" stroke-width="1.5" stroke-linecap="round" stroke-linejoin="round"/>
</svg>
