<svg width="1512" height="780" viewBox="0 0 1512 780" fill="none" xmlns="http://www.w3.org/2000/svg">
<rect width="1512" height="780" fill="#21242E"/>
<g filter="url(#filter0_d_65_25)">
<g filter="url(#filter1_f_65_25)">
<g clip-path="url(#clip0_65_25)">
<path fill-rule="evenodd" clip-rule="evenodd" d="M864.304 664.106L888.049 654.368C896.235 651.011 905.421 654.431 908.451 661.817C910.221 666.135 909.541 670.971 907.031 674.909C911.585 675.954 915.463 678.916 917.235 683.238C920.263 690.621 916.123 699.506 907.937 702.863C904.602 704.231 901.103 704.476 897.923 703.784L902.274 714.393C905.303 721.779 901.166 730.663 892.977 734.021C884.792 737.378 875.605 733.958 872.576 726.572C870.805 722.254 871.486 717.422 873.995 713.48C869.441 712.435 865.563 709.473 863.792 705.155C862.02 700.834 862.702 696.001 865.21 692.06C860.658 691.018 856.779 688.053 855.008 683.735C851.979 676.348 856.119 667.463 864.304 664.106ZM893.088 708.953L884.193 712.601C879.356 714.585 876.739 719.767 878.529 724.13C880.319 728.497 885.82 730.347 890.657 728.363C895.497 726.378 898.111 721.2 896.32 716.834L893.088 708.953ZM893.49 692.976C891.7 688.609 894.312 683.428 899.153 681.443C903.99 679.459 909.491 681.313 911.282 685.679C913.071 690.042 910.455 695.225 905.618 697.208C900.778 699.193 895.28 697.339 893.49 692.976ZM875.298 691.23C870.529 693.245 867.969 698.383 869.746 702.713C871.535 707.077 877.037 708.93 881.873 706.946L890.769 703.298L884.304 687.533L875.408 691.181L875.298 691.23ZM881.985 681.878L875.52 666.115L866.625 669.764C861.788 671.747 859.17 676.927 860.961 681.293C862.752 685.659 868.252 687.51 873.089 685.526L881.985 681.878ZM887.938 679.436L896.834 675.788C901.671 673.805 904.288 668.625 902.497 664.259C900.707 659.892 895.206 658.042 890.369 660.026L881.474 663.674L887.938 679.436Z" fill="#6272A4"/>
</g>
<rect x="829.348" y="662.198" width="89.2107" height="98.9373" transform="rotate(-22.2989 829.348 662.198)" stroke="black"/>
</g>
<g filter="url(#filter2_f_65_25)">
<path d="M633.862 734.532L619.976 682.389L573.772 685.542L538.432 715.473L564.802 762.551L606.48 766.16L633.862 734.532ZM582.759 753.528L573.204 757.405L577.385 694.447L624.271 736.682L614.734 740.551L604.818 730.867L583.123 739.669L582.759 753.528Z" fill="#53618B"/>
<path d="M582.947 753.992L583.25 753.869L583.259 753.541L583.615 740.009L604.703 731.453L614.385 740.909L614.619 741.138L614.922 741.015L624.459 737.145L625.199 736.845L624.606 736.311L577.72 694.075L576.954 693.386L576.886 694.414L572.705 757.372L572.652 758.169L573.392 757.869L582.947 753.992ZM619.599 682.916L633.311 734.404L606.269 765.639L565.109 762.076L539.07 715.589L573.97 686.03L619.599 682.916Z" stroke="black"/>
</g>
<g filter="url(#filter3_f_65_25)">
<path d="M581.172 727.721L595.524 720.649L580.392 708.039L581.172 727.721Z" fill="#53618B"/>
<path d="M581.641 726.933L580.936 709.143L594.613 720.541L581.641 726.933Z" stroke="black"/>
</g>
<g filter="url(#filter4_f_65_25)">
<path d="M1086.52 424.173L1184.17 402.658L1162.66 305L1065 326.515L1086.52 424.173ZM1162.2 384.582C1160.3 380.901 1151.98 381.778 1145.51 378.852C1139.06 376.305 1135.71 367.444 1139.19 361.169C1140.35 358.866 1142.64 356.824 1145.25 355.547L1148.04 354.552C1153.56 353.203 1157.3 353.915 1160.49 356.219C1161.4 356.784 1162.1 357.401 1163.58 358.868C1161.05 361.341 1161.05 361.341 1157.45 365.019C1156.1 363.268 1154.36 362.37 1152.67 362.232C1150.06 362.037 1147.12 363.512 1147.09 366.275C1147.03 367.122 1147.25 367.842 1147.91 369.103C1149.4 371.143 1152.94 371.387 1156.25 372.131C1165.62 373.726 1169.35 376.83 1171.04 381.129L1170.79 380.898C1172.32 384.594 1172.01 387.286 1171.97 387.678C1171.19 399.242 1153.57 403.508 1144.91 397.923C1143.07 396.537 1141.91 395.901 1140.62 394.136L1147.13 388.219C1149.81 390.827 1152.01 392.077 1155.47 392.082C1160.05 391.649 1164.23 389.128 1162.2 384.582ZM1115.11 396.439C1115.17 396.424 1115.45 396.752 1115.8 397.123C1117.09 398.497 1118.15 399.415 1119.94 399.858C1121.62 400.004 1125.16 399.6 1125.88 396.501C1126.39 394.905 1125.12 390.359 1124.01 385.346C1122.27 377.448 1120.58 369.603 1118.85 361.717L1127.99 359.701L1128.03 359.933C1129.88 368.356 1131.78 376.707 1133.57 385.076C1134.73 390.263 1136.19 394.805 1134.95 399.047C1134.16 402.293 1131.83 404.79 1128.85 406.412C1124.19 408.589 1119.37 408.948 1115.44 407.639C1112.79 406.75 1110.49 404.943 1108.69 402.653L1115.11 396.439Z" fill="#6272A4"/>
<path d="M1115.11 396.439C1115.16 396.428 1115.32 396.606 1115.55 396.851C1115.62 396.936 1115.71 397.028 1115.8 397.123C1117.09 398.497 1118.15 399.415 1119.94 399.858C1121.62 400.004 1125.16 399.6 1125.88 396.501C1126.29 395.224 1125.56 392.061 1124.68 388.281C1124.46 387.335 1124.24 386.35 1124.01 385.346C1123.14 381.395 1122.29 377.458 1121.43 373.522C1120.57 369.589 1119.72 365.658 1118.85 361.717L1115.11 396.439ZM1115.11 396.439L1108.69 402.653L1115.11 396.439ZM1172.47 387.695C1172.52 387.193 1172.78 384.588 1171.39 381.028L1171.51 380.946C1170.63 378.707 1169.21 376.771 1166.8 375.197C1164.41 373.634 1161.06 372.444 1156.34 371.64C1155.68 371.491 1155.01 371.361 1154.35 371.235C1154.18 371.203 1154.02 371.171 1153.86 371.14C1153.04 370.981 1152.25 370.82 1151.53 370.621C1150.09 370.223 1148.98 369.696 1148.34 368.836C1147.7 367.625 1147.54 367.012 1147.59 366.314L1147.59 366.297L1147.59 366.281C1147.61 365.1 1148.23 364.182 1149.19 363.564C1150.15 362.939 1151.43 362.641 1152.63 362.73C1154.17 362.857 1155.78 363.675 1157.05 365.324L1157.4 365.779L1157.8 365.369C1159.94 363.19 1160.8 362.303 1161.68 361.428C1162.29 360.827 1162.9 360.231 1163.93 359.225L1164.29 358.871L1163.93 358.513C1162.46 357.049 1161.72 356.398 1160.77 355.804C1157.44 353.403 1153.54 352.692 1147.92 354.067L1147.89 354.073L1147.87 354.081L1145.08 355.076L1145.05 355.085L1145.03 355.098C1142.35 356.409 1139.97 358.516 1138.75 360.935C1136.93 364.22 1136.91 368.155 1138.16 371.58C1139.41 375.003 1141.94 377.975 1145.32 379.312C1148.09 380.564 1151.19 381.134 1153.94 381.638C1154.47 381.735 1154.98 381.829 1155.48 381.925C1157.04 382.228 1158.41 382.547 1159.51 383.006C1160.6 383.463 1161.35 384.032 1161.75 384.799C1162.22 385.854 1162.31 386.754 1162.16 387.512C1162.01 388.273 1161.59 388.938 1160.97 389.506C1159.73 390.652 1157.67 391.368 1155.44 391.582C1153.79 391.577 1152.46 391.276 1151.23 390.677C1149.98 390.071 1148.8 389.148 1147.48 387.86L1147.14 387.533L1146.79 387.849L1140.29 393.767L1139.96 394.068L1140.22 394.431C1141.3 395.912 1142.32 396.652 1143.61 397.588C1143.93 397.817 1144.26 398.057 1144.61 398.322L1144.63 398.333L1144.64 398.343C1149.13 401.239 1155.87 401.553 1161.55 399.707C1167.23 397.861 1172.06 393.784 1172.47 387.719C1172.47 387.712 1172.47 387.704 1172.47 387.695ZM1115 395.951L1114.86 395.981L1114.76 396.08L1108.34 402.294L1108.02 402.608L1108.3 402.962C1110.15 405.311 1112.52 407.186 1115.28 408.113L1115.28 408.113C1119.35 409.469 1124.31 409.087 1129.06 406.865L1129.07 406.858L1129.09 406.851C1132.16 405.183 1134.6 402.588 1135.44 399.176C1136.08 396.96 1136.02 394.686 1135.66 392.34C1135.4 390.681 1134.99 388.953 1134.57 387.173C1134.4 386.446 1134.22 385.711 1134.06 384.968C1132.86 379.393 1131.62 373.824 1130.38 368.238C1129.76 365.445 1129.14 362.647 1128.52 359.843L1128.49 359.629L1128.41 359.098L1127.89 359.213L1118.74 361.228L1118.25 361.336L1118.36 361.824C1119.23 365.763 1120.08 369.691 1120.94 373.622L1120.94 373.633C1121.8 377.567 1122.66 381.504 1123.53 385.453C1123.75 386.47 1123.98 387.459 1124.2 388.406C1124.52 389.815 1124.83 391.131 1125.06 392.303C1125.26 393.278 1125.4 394.132 1125.46 394.834C1125.53 395.551 1125.5 396.051 1125.41 396.35L1125.4 396.368L1125.4 396.387C1125.08 397.735 1124.16 398.504 1123.09 398.932C1122.01 399.358 1120.81 399.426 1120.02 399.363C1118.4 398.952 1117.43 398.122 1116.16 396.78L1116.16 396.779C1116.08 396.69 1116 396.602 1115.92 396.519C1115.84 396.438 1115.77 396.358 1115.71 396.291C1115.65 396.226 1115.58 396.158 1115.52 396.105C1115.49 396.08 1115.44 396.043 1115.38 396.012L1115.38 396.011C1115.35 395.993 1115.2 395.907 1115 395.951ZM1162.28 305.596L1183.58 402.277L1086.9 423.577L1065.6 326.896L1162.28 305.596Z" stroke="black"/>
</g>
<g filter="url(#filter5_f_65_25)">
<g clip-path="url(#clip1_65_25)">
<path d="M1017.24 523.248C1012.98 524.433 1010.49 528.836 1011.68 533.098C1011.85 533.714 1012.11 534.279 1012.4 534.815L995.686 550.645C993.848 549.494 991.566 549.07 989.308 549.698C985.046 550.883 982.559 555.286 983.744 559.548C984.738 563.123 988.03 565.435 991.591 565.374L998.173 589.046C995.09 590.828 993.46 594.494 994.459 598.087C995.638 602.328 1000.05 604.836 1004.31 603.651C1006.57 603.024 1008.3 601.482 1009.28 599.548L1031.77 604.477C1031.8 605.089 1031.87 605.705 1032.04 606.321C1033.22 610.583 1037.63 613.071 1041.89 611.885C1046.15 610.7 1048.63 606.276 1047.45 602.035C1047.28 601.419 1047.02 600.855 1046.73 600.319L1063.45 584.488C1065.28 585.639 1067.57 586.063 1069.82 585.435C1074.09 584.25 1076.57 579.826 1075.39 575.585C1074.39 571.992 1071.1 569.694 1067.54 569.759L1060.96 546.087C1064.04 544.301 1065.67 540.621 1064.67 537.047C1063.49 532.784 1059.09 530.297 1054.82 531.482C1052.57 532.11 1050.83 533.651 1049.85 535.585L1027.36 530.656C1027.34 530.044 1027.27 529.427 1027.09 528.812C1025.91 524.55 1021.51 522.063 1017.24 523.248ZM1015.15 537.716C1015.26 537.784 1015.36 537.869 1015.47 537.932L1002.21 587.978C1002.15 587.978 1002.09 587.97 1002.03 587.971L995.445 564.303C998.528 562.521 1000.16 558.855 999.159 555.262C998.988 554.646 998.73 554.082 998.435 553.546L1015.15 537.716ZM1026.5 534.561L1048.99 539.489C1049.02 540.101 1049.09 540.717 1049.26 541.333C1050.26 544.925 1053.55 547.224 1057.11 547.158L1063.69 570.827C1063.63 570.857 1063.59 570.894 1063.54 570.926L1026.34 534.905C1026.4 534.795 1026.44 534.674 1026.5 534.561ZM1023.53 537.754L1060.72 573.775C1060.03 575.001 1059.69 576.413 1059.71 577.868L1009.06 591.95C1008.34 590.69 1007.31 589.657 1006.09 588.967L1019.35 538.921C1020.07 538.924 1020.8 538.866 1021.53 538.663C1022.26 538.46 1022.91 538.13 1023.53 537.754ZM1010.46 595.714L1060.46 581.811L1043.98 597.418C1042.14 596.267 1039.86 595.843 1037.6 596.47C1035.35 597.098 1033.61 598.639 1032.63 600.573L1010.46 595.714Z" fill="#53618B"/>
</g>
<rect x="968.616" y="533.136" width="99" height="99" transform="rotate(-15.538 968.616 533.136)" stroke="black"/>
</g>
<g filter="url(#filter6_f_65_25)">
<path d="M1399.38 289C1398.75 289 1398.14 289.251 1397.7 289.697C1397.25 290.144 1397 290.75 1397 291.381V386.619C1397 387.25 1397.25 387.856 1397.7 388.303C1398.14 388.749 1398.75 389 1399.38 389H1494.62C1495.25 389 1495.86 388.749 1496.3 388.303C1496.75 387.856 1497 387.25 1497 386.619V291.381C1497 290.75 1496.75 290.144 1496.3 289.697C1495.86 289.251 1495.25 289 1494.62 289H1399.38ZM1401.76 293.762H1492.24V384.238H1401.76V293.762ZM1423.19 334.238V342.441H1435.1V379.476H1444.62V342.441H1456.52V334.238H1423.19ZM1474.84 334.261C1467.42 334.232 1458.95 336.479 1458.95 346.915C1458.95 360.558 1477.33 360.561 1477.33 366.716C1477.33 367.299 1477.58 371.538 1471.09 371.538C1464.6 371.538 1459.19 367.46 1459.19 367.46V377.36C1459.19 377.36 1487.48 386.51 1487.48 365.879C1487.48 352.486 1468.93 353.156 1468.93 346.501C1468.93 343.922 1470.76 341.511 1475.83 341.511C1480.91 341.511 1485.4 344.506 1485.4 344.506L1485.73 335.684C1485.73 335.684 1480.6 334.284 1474.84 334.261Z" fill="#53618B"/>
<path d="M1401.76 293.262H1401.26V293.762V384.238V384.738H1401.76H1492.24H1492.74V384.238V293.762V293.262H1492.24H1401.76ZM1435.6 342.441V341.941H1435.1H1423.69V334.738H1456.02V341.941H1444.62H1444.12V342.441V378.976H1435.6V342.441ZM1485.22 336.069L1484.93 343.641C1484.91 343.628 1484.88 343.615 1484.86 343.602C1484.35 343.314 1483.61 342.931 1482.71 342.549C1480.92 341.786 1478.46 341.011 1475.83 341.011C1473.22 341.011 1471.37 341.631 1470.15 342.658C1468.93 343.692 1468.43 345.088 1468.43 346.501C1468.43 348.441 1469.79 349.777 1471.56 350.877C1472.72 351.599 1474.15 352.277 1475.64 352.981C1476.42 353.347 1477.2 353.719 1477.98 354.11C1482.59 356.437 1486.98 359.492 1486.98 365.879C1486.98 370.909 1485.26 374.047 1482.76 375.98C1480.22 377.934 1476.8 378.713 1473.32 378.857C1469.84 379 1466.34 378.509 1463.71 377.977C1462.4 377.712 1461.3 377.438 1460.54 377.231C1460.18 377.133 1459.9 377.051 1459.69 376.991V368.406C1459.75 368.443 1459.81 368.481 1459.87 368.52C1460.5 368.911 1461.39 369.431 1462.49 369.951C1464.7 370.989 1467.74 372.038 1471.09 372.038C1474.45 372.038 1476.19 370.932 1477.06 369.622C1477.85 368.425 1477.83 367.158 1477.83 366.778C1477.83 366.753 1477.83 366.733 1477.83 366.716C1477.83 364.891 1476.46 363.607 1474.72 362.52C1473.84 361.967 1472.81 361.437 1471.74 360.896C1471.5 360.779 1471.27 360.662 1471.03 360.543C1470.16 360.111 1469.27 359.665 1468.38 359.183C1463.81 356.724 1459.45 353.44 1459.45 346.915C1459.45 341.86 1461.48 338.856 1464.37 337.09C1467.3 335.299 1471.16 334.747 1474.83 334.761C1477.68 334.773 1480.38 335.124 1482.36 335.474C1483.35 335.649 1484.17 335.822 1484.73 335.952C1484.92 335.997 1485.09 336.036 1485.22 336.069ZM1398.05 290.051C1398.4 289.698 1398.88 289.5 1399.38 289.5C1399.38 289.5 1399.38 289.5 1399.38 289.5H1494.62C1495.12 289.5 1495.6 289.698 1495.95 290.051C1496.3 290.404 1496.5 290.882 1496.5 291.381V386.619C1496.5 387.118 1496.3 387.596 1495.95 387.949C1495.6 388.302 1495.12 388.5 1494.62 388.5H1399.38C1398.88 388.5 1398.4 388.302 1398.05 387.949C1397.7 387.596 1397.5 387.118 1397.5 386.619V291.381C1397.5 291.381 1397.5 291.381 1397.5 291.381C1397.5 290.882 1397.7 290.404 1398.05 290.051Z" stroke="black"/>
</g>
<g filter="url(#filter7_f_65_25)">
<path d="M1159.07 638.851C1146.52 643.345 1141.3 653.476 1143.4 669.244C1145.49 660.236 1150 655.526 1156.93 655.108C1160.88 654.87 1164.53 656.986 1168.56 659.327C1175.13 663.139 1182.74 667.554 1194.41 663.377C1206.96 658.883 1212.19 648.752 1210.08 632.982C1207.99 641.99 1203.49 646.702 1196.55 647.12C1192.6 647.358 1188.96 645.241 1184.92 642.9C1178.35 639.087 1170.74 634.675 1159.07 638.851ZM1147.33 680.228C1134.78 684.722 1129.55 694.853 1131.66 710.623C1133.75 701.615 1138.25 696.903 1145.19 696.487C1149.14 696.252 1152.79 698.366 1156.82 700.705C1163.39 704.518 1171 708.932 1182.67 704.756C1195.22 700.262 1200.44 690.132 1198.34 674.361C1196.25 683.369 1191.74 688.081 1184.81 688.497C1180.86 688.735 1177.21 686.619 1173.18 684.28C1166.61 680.466 1159 676.051 1147.33 680.228Z" fill="#6272A4"/>
<path d="M1205.5 643.618C1207.37 641.656 1208.83 638.998 1209.87 635.667C1210.43 642.304 1209.56 647.798 1207.3 652.179C1204.75 657.113 1200.42 660.694 1194.24 662.906C1188.5 664.961 1183.78 664.897 1179.7 663.863C1175.59 662.825 1172.11 660.805 1168.82 658.895L1168.82 658.895L1168.72 658.842C1164.76 656.541 1161 654.362 1156.9 654.609L1156.93 655.108L1156.9 654.609C1153.32 654.825 1150.33 656.156 1147.99 658.609C1146.11 660.57 1144.66 663.228 1143.61 666.558C1143.05 659.923 1143.93 654.43 1146.19 650.049C1148.73 645.115 1153.06 641.534 1159.24 639.322C1164.98 637.268 1169.7 637.331 1173.79 638.364C1177.89 639.402 1181.38 641.422 1184.67 643.333L1184.67 643.333L1184.76 643.386C1188.73 645.686 1192.48 647.866 1196.58 647.619L1196.58 647.619C1200.17 647.403 1203.15 646.072 1205.5 643.618ZM1198.13 677.047C1198.69 683.683 1197.81 689.177 1195.56 693.558C1193.01 698.492 1188.68 702.073 1182.5 704.285C1176.76 706.34 1172.04 706.276 1167.96 705.242C1163.85 704.203 1160.36 702.183 1157.07 700.272L1157.07 700.272L1156.98 700.22C1153.02 697.921 1149.26 695.744 1145.16 695.988L1145.16 695.988C1141.57 696.203 1138.59 697.534 1136.24 699.987C1134.37 701.949 1132.92 704.607 1131.87 707.938C1131.31 701.301 1132.18 695.807 1134.44 691.426C1136.99 686.492 1141.32 682.911 1147.5 680.699C1153.24 678.644 1157.96 678.708 1162.04 679.742C1166.15 680.781 1169.63 682.801 1172.93 684.713L1172.93 684.713L1173.03 684.77C1176.99 687.066 1180.74 689.243 1184.84 688.996C1188.43 688.781 1191.41 687.45 1193.75 684.997C1195.63 683.035 1197.08 680.377 1198.13 677.047Z" stroke="black"/>
</g>
<g filter="url(#filter8_f_65_25)">
<path fill-rule="evenodd" clip-rule="evenodd" d="M1325.79 471L1343.03 559.24L1306.6 581.145L1264.14 582.883L1230 499.71L1325.79 471ZM1271.42 547.736L1282.69 544.358L1284.85 550.578L1297.46 550.639L1307.96 543.651L1305.4 532.057L1280.61 539.485L1277.02 529.573L1302.95 521.802L1300.76 511.468L1261.89 523.118L1258.02 513.289L1309.58 497.836L1314.22 518.424L1320.92 548.007L1300.64 561.235L1276.42 561.346L1271.42 547.736Z" fill="#53618B"/>
<path d="M1271.27 547.257L1270.76 547.409L1270.95 547.908L1275.95 561.519L1276.07 561.848L1276.42 561.846L1300.64 561.735L1300.79 561.734L1300.91 561.654L1321.2 548.426L1321.49 548.236L1321.41 547.897L1314.7 518.315L1314.7 518.314L1310.07 497.726L1309.95 497.203L1309.44 497.357L1257.88 512.81L1257.36 512.966L1257.56 513.472L1261.43 523.301L1261.59 523.729L1262.03 523.597L1300.39 512.103L1302.36 521.455L1276.88 529.094L1276.37 529.246L1276.55 529.744L1280.14 539.655L1280.3 540.099L1280.76 539.964L1305.03 532.69L1307.4 543.424L1297.31 550.139L1285.21 550.079L1283.16 544.194L1283 543.742L1282.54 543.879L1271.27 547.257ZM1230.67 500.03L1325.41 471.637L1342.47 558.992L1306.46 580.651L1264.47 582.37L1230.67 500.03Z" stroke="black"/>
</g>
<g filter="url(#filter9_f_65_25)">
<path d="M1421.39 667.125C1415.39 667.201 1410.61 671.681 1411.15 676.723L1413.05 694.593C1413.09 695.092 1413.25 695.579 1413.52 696.024C1413.79 696.47 1414.16 696.866 1414.61 697.188C1415.06 697.511 1415.58 697.754 1416.15 697.904C1416.71 698.053 1417.31 698.106 1417.9 698.058C1418.49 698.011 1419.06 697.865 1419.58 697.629C1420.11 697.393 1420.57 697.071 1420.95 696.682C1421.32 696.293 1421.6 695.846 1421.77 695.365C1421.94 694.885 1421.99 694.381 1421.92 693.884L1420.02 676.019C1419.94 675.234 1420.55 674.66 1421.49 674.648L1500.7 673.654C1501.63 673.642 1502.25 674.201 1502.19 674.987L1498.22 723.919C1498.14 724.915 1498.53 725.896 1499.31 726.646C1500.09 727.395 1501.19 727.852 1502.37 727.916C1503.55 727.98 1504.71 727.645 1505.6 726.986C1506.49 726.327 1507.04 725.396 1507.12 724.4L1511.08 675.468C1511.49 670.414 1506.6 666.055 1500.6 666.131L1421.39 667.125ZM1437.66 686.985C1435.94 687.007 1434.58 688.264 1434.73 689.716L1437.28 714.765C1437.41 716.073 1438.72 717.069 1440.27 717.049L1477.33 716.584L1476.14 732.603L1461.91 736.641L1448.05 732.98L1447.55 727.97C1447.35 726.006 1445.39 724.509 1443.06 724.539C1440.47 724.571 1438.45 726.456 1438.67 728.635L1439.52 736.986C1439.62 737.996 1440.43 738.851 1441.57 739.155L1461.03 744.324C1461.63 744.484 1462.27 744.476 1462.87 744.305L1482.74 738.653C1483.89 738.327 1484.69 737.442 1484.77 736.423L1486.63 711.637C1486.74 710.181 1485.36 708.959 1483.64 708.981L1445.67 709.457L1444.18 694.428L1483.23 693.937C1485.56 693.908 1487.48 692.37 1487.63 690.409C1487.8 688.222 1485.73 686.382 1483.14 686.414L1437.66 686.985ZM1419.22 707.017C1418.6 707.022 1417.99 707.137 1417.42 707.354C1416.85 707.571 1416.35 707.886 1415.93 708.279C1415.52 708.671 1415.2 709.132 1415.01 709.632C1414.82 710.132 1414.75 710.66 1414.81 711.182L1418.85 749.149C1419.22 752.576 1421.95 755.521 1425.8 756.635L1458.74 766.151C1458.74 766.151 1458.74 766.151 1458.74 766.151C1461.02 766.807 1463.49 766.776 1465.75 766.063L1498.43 755.723C1502.26 754.514 1504.91 751.501 1505.19 748.065L1505.92 739.15C1505.97 738.651 1505.9 738.148 1505.72 737.671C1505.54 737.194 1505.25 736.753 1504.87 736.373C1504.48 735.993 1504.01 735.682 1503.48 735.459C1502.95 735.235 1502.37 735.104 1501.78 735.072C1501.19 735.04 1500.6 735.108 1500.03 735.272C1499.47 735.437 1498.96 735.694 1498.51 736.029C1498.07 736.364 1497.71 736.77 1497.46 737.224C1497.2 737.677 1497.05 738.168 1497.03 738.669L1496.3 747.584C1496.26 748.085 1495.9 748.503 1495.34 748.678C1495.34 748.678 1495.34 748.678 1495.34 748.679L1462.66 759.018C1462.33 759.12 1461.98 759.125 1461.65 759.031L1428.72 749.515C1428.16 749.354 1427.79 748.945 1427.73 748.445L1423.69 710.478C1423.6 709.53 1423.09 708.645 1422.27 708.003C1421.44 707.361 1420.35 707.008 1419.22 707.017Z" fill="#53618B"/>
<path d="M1413.55 694.552L1413.55 694.552L1413.55 694.541L1411.65 676.67C1411.15 672.007 1415.6 667.698 1421.4 667.625L1500.61 666.631C1506.4 666.558 1510.96 670.754 1510.58 675.427L1506.62 724.36C1506.55 725.196 1506.09 726 1505.3 726.584C1504.51 727.169 1503.46 727.475 1502.39 727.417C1501.32 727.359 1500.34 726.944 1499.66 726.286C1498.98 725.631 1498.65 724.793 1498.72 723.96L1502.69 675.027L1502.2 674.987L1502.69 675.027C1502.73 674.481 1502.53 673.991 1502.15 673.648C1501.77 673.312 1501.25 673.146 1500.69 673.154L1421.48 674.148C1420.91 674.155 1420.4 674.334 1420.03 674.679C1419.66 675.032 1419.47 675.527 1419.53 676.072L1419.53 676.072L1421.43 693.937L1421.43 693.937L1421.43 693.949C1421.48 694.368 1421.44 694.792 1421.3 695.2C1421.15 695.608 1420.91 695.995 1420.59 696.335C1420.26 696.675 1419.85 696.961 1419.38 697.173C1418.91 697.385 1418.39 697.517 1417.86 697.56C1417.32 697.603 1416.78 697.555 1416.28 697.42C1415.77 697.285 1415.3 697.067 1414.9 696.782C1414.5 696.496 1414.18 696.15 1413.95 695.767C1413.72 695.385 1413.59 694.972 1413.55 694.552ZM1435.23 689.666L1435.23 689.665C1435.12 688.592 1436.14 687.505 1437.67 687.485L1483.14 686.914C1485.54 686.884 1487.27 688.561 1487.13 690.369C1487 692.007 1485.37 693.41 1483.23 693.437L1444.17 693.928L1443.63 693.935L1443.68 694.477L1445.18 709.507L1445.22 709.963L1445.68 709.957L1483.64 709.481C1485.17 709.461 1486.21 710.522 1486.13 711.6L1484.27 736.385L1484.27 736.385C1484.21 737.155 1483.6 737.891 1482.61 738.172L1482.61 738.172L1462.73 743.824L1462.73 743.825C1462.22 743.971 1461.67 743.977 1461.16 743.841L1461.15 743.84L1441.7 738.672C1440.72 738.409 1440.09 737.697 1440.01 736.936L1440.01 736.936L1439.17 728.585C1439.17 728.585 1439.17 728.585 1439.17 728.585C1438.98 726.783 1440.67 725.069 1443.07 725.039C1445.21 725.012 1446.89 726.38 1447.05 728.02L1447.05 728.02L1447.55 733.03L1447.59 733.375L1447.92 733.463L1461.78 737.125L1461.91 737.16L1462.05 737.122L1476.28 733.084L1476.61 732.988L1476.64 732.64L1477.83 716.621L1477.87 716.077L1477.33 716.084L1440.26 716.55C1438.9 716.567 1437.87 715.698 1437.77 714.715L1437.77 714.715L1435.23 689.666ZM1415.31 711.129L1415.31 711.129L1415.31 711.121C1415.26 710.682 1415.31 710.236 1415.48 709.811C1415.64 709.386 1415.91 708.986 1416.27 708.642C1416.64 708.297 1417.09 708.016 1417.6 707.821C1418.11 707.626 1418.66 707.521 1419.23 707.517C1420.25 707.509 1421.23 707.83 1421.96 708.398C1422.69 708.965 1423.12 709.727 1423.19 710.523L1423.19 710.523L1423.19 710.531L1427.24 748.498C1427.24 748.498 1427.24 748.498 1427.24 748.498C1427.31 749.236 1427.87 749.789 1428.58 749.996C1428.58 749.996 1428.58 749.996 1428.58 749.996L1461.51 759.511L1461.51 759.511C1461.93 759.633 1462.39 759.627 1462.81 759.495L1462.81 759.495L1495.42 749.178L1495.42 749.178L1495.49 749.155C1496.2 748.931 1496.74 748.364 1496.8 747.624L1497.53 738.71L1497.53 738.71L1497.53 738.696C1497.55 738.275 1497.67 737.858 1497.89 737.469C1498.11 737.079 1498.42 736.724 1498.81 736.428C1499.21 736.131 1499.67 735.9 1500.17 735.752C1500.68 735.604 1501.22 735.542 1501.75 735.571C1502.29 735.6 1502.81 735.719 1503.29 735.919C1503.76 736.12 1504.18 736.396 1504.52 736.729C1504.85 737.061 1505.1 737.442 1505.26 737.848C1505.41 738.252 1505.46 738.677 1505.42 739.097L1505.42 739.097L1505.42 739.11L1504.69 748.024C1504.43 751.219 1501.96 754.085 1498.28 755.246L1498.28 755.246L1465.6 765.586C1465.6 765.586 1465.6 765.586 1465.6 765.586C1463.44 766.269 1461.06 766.299 1458.88 765.67L1458.81 765.65L1458.8 765.65L1425.94 756.155L1425.94 756.155C1422.24 755.086 1419.69 752.282 1419.35 749.096L1418.95 749.139L1419.35 749.096L1415.31 711.129Z" stroke="black"/>
</g>
<g filter="url(#filter10_f_65_25)">
<path d="M773.539 543.954L721.908 559.772C714.778 561.956 710.77 569.504 712.954 576.634L728.771 628.265C730.956 635.395 738.504 639.403 745.634 637.219L797.265 621.402C804.395 619.218 808.403 611.669 806.219 604.54L790.402 552.908C788.218 545.779 780.669 541.77 773.539 543.954Z" fill="#53618B"/>
<path d="M722.054 560.25L773.686 544.432C780.551 542.329 787.82 546.189 789.924 553.054L805.741 604.686C807.844 611.551 803.984 618.82 797.119 620.924L745.487 636.741C738.622 638.844 731.353 634.984 729.249 628.119L713.432 576.487C711.329 569.622 715.189 562.353 722.054 560.25Z" stroke="black"/>
</g>
<g filter="url(#filter11_f_65_25)">
<path d="M795.947 617.099L744.315 632.916C739.563 634.372 734.53 631.699 733.074 626.947L717.257 575.315C715.801 570.563 718.474 565.53 723.226 564.074L774.857 548.257C779.61 546.801 784.643 549.474 786.099 554.226L801.916 605.858C803.372 610.61 800.699 615.643 795.947 617.099Z" fill="#2A2B38"/>
<path d="M795.8 616.621L744.169 632.438C739.681 633.813 734.927 631.289 733.552 626.801L717.735 575.169C716.36 570.681 718.884 565.927 723.372 564.552L775.004 548.735C779.492 547.36 784.246 549.884 785.621 554.372L801.438 606.004C802.813 610.492 800.289 615.246 795.8 616.621Z" stroke="black"/>
</g>
<g filter="url(#filter12_f_65_25)">
<path d="M733.478 578.282C733.408 578.054 733.515 577.811 733.733 577.716C734.564 577.358 736.905 576.427 742.028 574.858C749.747 572.493 756.091 573.898 758.657 582.275C760.972 589.831 757.186 595.84 748.886 598.383C748.402 598.531 747.918 598.68 746.27 599.184L750.147 611.838C750.211 612.049 750.092 612.274 749.881 612.339L744.808 613.893C744.598 613.957 744.373 613.838 744.308 613.627L733.48 578.281L733.478 578.282ZM744.64 593.864C744.64 593.864 747.199 593.099 747.776 592.922C752.515 591.471 753.81 588.001 752.657 584.236C751.577 580.71 748.639 578.602 744.259 579.944C742.454 580.497 740.743 581.134 740.743 581.134L744.64 593.864Z" fill="#6272A4"/>
<path d="M744.757 613.386L733.966 578.16C734.806 577.801 737.135 576.88 742.174 575.336C745.983 574.169 749.372 573.959 752.095 575.005C754.791 576.04 756.93 578.344 758.179 582.422C759.301 586.085 758.934 589.324 757.326 591.948C755.712 594.581 752.809 596.658 748.74 597.905L748.737 597.906L748.734 597.907L748.731 597.908L748.728 597.908L748.726 597.909L748.723 597.91L748.72 597.911L748.717 597.912L748.714 597.913L748.711 597.914L748.709 597.914L748.706 597.915L748.703 597.916L748.7 597.917L748.697 597.918L748.694 597.919L748.692 597.92L748.689 597.921L748.686 597.921L748.683 597.922L748.68 597.923L748.677 597.924L748.674 597.925L748.672 597.926L748.669 597.927L748.666 597.928L748.663 597.928L748.66 597.929L748.657 597.93L748.655 597.931L748.652 597.932L748.649 597.933L748.646 597.934L748.643 597.935L748.64 597.935L748.637 597.936L748.634 597.937L748.632 597.938L748.629 597.939L748.626 597.94L748.623 597.941L748.62 597.942L748.617 597.943L748.614 597.943L748.611 597.944L748.609 597.945L748.606 597.946L748.603 597.947L748.6 597.948L748.597 597.949L748.594 597.95L748.591 597.95L748.588 597.951L748.585 597.952L748.582 597.953L748.579 597.954L748.577 597.955L748.574 597.956L748.571 597.957L748.568 597.958L748.565 597.959L748.562 597.959L748.559 597.96L748.556 597.961L748.553 597.962L748.55 597.963L748.547 597.964L748.544 597.965L748.541 597.966L748.538 597.967L748.535 597.968L748.532 597.968L748.529 597.969L748.526 597.97L748.523 597.971L748.52 597.972L748.517 597.973L748.514 597.974L748.511 597.975L748.508 597.976L748.505 597.977L748.502 597.978L748.499 597.979L748.496 597.979L748.493 597.98L748.49 597.981L748.487 597.982L748.484 597.983L748.481 597.984L748.478 597.985L748.475 597.986L748.472 597.987L748.469 597.988L748.466 597.989L748.463 597.99L748.46 597.991L748.457 597.992L748.454 597.993L748.451 597.994L748.448 597.994L748.444 597.995L748.441 597.996L748.438 597.997L748.435 597.998L748.432 597.999L748.429 598L748.426 598.001L748.423 598.002L748.419 598.003L748.416 598.004L748.413 598.005L748.41 598.006L748.407 598.007L748.404 598.008L748.4 598.009L748.397 598.01L748.394 598.011L748.391 598.012L748.388 598.013L748.385 598.014L748.381 598.015L748.378 598.016L748.375 598.017L748.372 598.018L748.368 598.019L748.365 598.02L748.362 598.021L748.359 598.022L748.355 598.023L748.352 598.024L748.349 598.025L748.346 598.026L748.342 598.027L748.339 598.028L748.336 598.029L748.332 598.03L748.329 598.031L748.326 598.032L748.322 598.033L748.319 598.034L748.316 598.035L748.312 598.036L748.309 598.037L748.306 598.038L748.302 598.039L748.299 598.04L748.295 598.041L748.292 598.042L748.289 598.043L748.285 598.044L748.282 598.045L748.278 598.046L748.275 598.047L748.271 598.048L748.268 598.049L748.264 598.051L748.261 598.052L748.258 598.053L748.254 598.054L748.251 598.055L748.247 598.056L748.244 598.057L748.24 598.058L748.236 598.059L748.233 598.06L748.229 598.061L748.226 598.062L748.222 598.063L748.219 598.065L748.215 598.066L748.211 598.067L748.208 598.068L748.204 598.069L748.201 598.07L748.197 598.071L748.193 598.072L748.19 598.073L748.186 598.075L748.182 598.076L748.179 598.077L748.175 598.078L748.171 598.079L748.168 598.08L748.164 598.081L748.16 598.082L748.156 598.084L748.153 598.085L748.149 598.086L748.145 598.087L748.141 598.088L748.138 598.089L748.134 598.091L748.13 598.092L748.126 598.093L748.122 598.094L748.119 598.095L748.115 598.096L748.111 598.098L748.107 598.099L748.103 598.1L748.099 598.101L748.095 598.102L748.092 598.104L748.088 598.105L748.084 598.106L748.08 598.107L748.076 598.108L748.072 598.11L748.068 598.111L748.064 598.112L748.06 598.113L748.056 598.114L748.052 598.116L748.048 598.117L748.044 598.118L748.04 598.119L748.036 598.121L748.032 598.122L748.028 598.123L748.024 598.124L748.019 598.126L748.015 598.127L748.011 598.128L748.007 598.129L748.003 598.131L747.999 598.132L747.995 598.133L747.99 598.135L747.986 598.136L747.982 598.137L747.978 598.138L747.974 598.14L747.969 598.141L747.965 598.142L747.961 598.144L747.957 598.145L747.952 598.146L747.948 598.148L747.944 598.149L747.939 598.15L747.935 598.152L747.931 598.153L747.926 598.154L747.922 598.156L747.917 598.157L747.913 598.158L747.909 598.16L747.904 598.161L747.9 598.162L747.895 598.164L747.891 598.165L747.886 598.166L747.882 598.168L747.877 598.169L747.873 598.171L747.868 598.172L747.864 598.173L747.859 598.175L747.855 598.176L747.85 598.178L747.845 598.179L747.841 598.18L747.836 598.182L747.832 598.183L747.827 598.185L747.822 598.186L747.818 598.187L747.813 598.189L747.808 598.19L747.803 598.192L747.799 598.193L747.794 598.195L747.789 598.196L747.784 598.198L747.78 598.199L747.775 598.201L747.77 598.202L747.765 598.204L747.76 598.205L747.755 598.207L747.75 598.208L747.746 598.21L747.741 598.211L747.736 598.213L747.731 598.214L747.726 598.216L747.721 598.217L747.716 598.219L747.711 598.22L747.706 598.222L747.701 598.223L747.696 598.225L747.691 598.226L747.686 598.228L747.681 598.229L747.675 598.231L747.67 598.233L747.665 598.234L747.66 598.236L747.655 598.237L747.65 598.239L747.644 598.24L747.639 598.242L747.634 598.244L747.629 598.245L747.623 598.247L747.618 598.249L747.613 598.25L747.608 598.252L747.602 598.253L747.597 598.255L747.592 598.257L747.586 598.258L747.581 598.26L747.575 598.262L747.57 598.263L747.565 598.265L747.559 598.267L747.554 598.268L747.548 598.27L747.543 598.272L747.537 598.273L747.532 598.275L747.526 598.277L747.52 598.279L747.515 598.28L747.509 598.282L747.504 598.284L747.498 598.285L747.492 598.287L747.487 598.289L747.481 598.291L747.475 598.292L747.469 598.294L747.464 598.296L747.458 598.298L747.452 598.299L747.446 598.301L747.441 598.303L747.435 598.305L747.429 598.307L747.423 598.308L747.417 598.31L747.411 598.312L747.405 598.314L747.399 598.316L747.393 598.317L747.387 598.319L747.381 598.321L747.375 598.323L747.369 598.325L747.363 598.327L747.357 598.328L747.351 598.33L747.345 598.332L747.339 598.334L747.333 598.336L747.327 598.338L747.32 598.34L747.314 598.342L747.308 598.344L747.302 598.345L747.296 598.347L747.289 598.349L747.283 598.351L747.277 598.353L747.27 598.355L747.264 598.357L747.258 598.359L747.251 598.361L747.245 598.363L747.238 598.365L747.232 598.367L747.225 598.369L747.219 598.371L747.212 598.373L747.206 598.375L747.199 598.377L747.193 598.379L747.186 598.381L747.18 598.383L747.173 598.385L747.166 598.387L747.16 598.389L747.153 598.391L747.146 598.393L747.14 598.395L747.133 598.397L747.126 598.399L747.119 598.401L747.113 598.403L747.106 598.406L747.099 598.408L747.092 598.41L747.085 598.412L747.078 598.414L747.071 598.416L747.064 598.418L747.057 598.42L747.05 598.422L747.043 598.425L747.036 598.427L747.029 598.429L747.022 598.431L747.015 598.433L747.008 598.435L747.001 598.438L746.994 598.44L746.987 598.442L746.979 598.444L746.972 598.446L746.965 598.449L746.958 598.451L746.95 598.453L746.943 598.455L746.936 598.458L746.928 598.46L746.921 598.462L746.914 598.464L746.906 598.467L746.899 598.469L746.891 598.471L746.884 598.474L746.876 598.476L746.869 598.478L746.861 598.48L746.854 598.483L746.846 598.485L746.838 598.487L746.831 598.49L746.823 598.492L746.815 598.494L746.808 598.497L746.8 598.499L746.792 598.502L746.785 598.504L746.777 598.506L746.769 598.509L746.761 598.511L746.753 598.514L746.745 598.516L746.737 598.518L746.73 598.521L746.722 598.523L746.714 598.526L746.706 598.528L746.698 598.531L746.69 598.533L746.681 598.536L746.673 598.538L746.665 598.54L746.657 598.543L746.649 598.545L746.641 598.548L746.633 598.55L746.624 598.553L746.616 598.556L746.608 598.558L746.599 598.561L746.591 598.563L746.583 598.566L746.574 598.568L746.566 598.571L746.558 598.573L746.549 598.576L746.541 598.579L746.532 598.581L746.524 598.584L746.515 598.586L746.507 598.589L746.498 598.592L746.489 598.594L746.481 598.597L746.472 598.6L746.463 598.602L746.455 598.605L746.446 598.608L746.437 598.61L746.428 598.613L746.419 598.616L746.411 598.618L746.402 598.621L746.393 598.624L746.384 598.627L746.375 598.629L746.366 598.632L746.357 598.635L746.348 598.638L746.339 598.64L746.33 598.643L746.321 598.646L746.312 598.649L746.303 598.652L746.293 598.654L746.284 598.657L746.275 598.66L746.266 598.663L746.256 598.666L746.247 598.669L746.238 598.671L746.228 598.674L746.219 598.677L746.21 598.68L746.2 598.683L746.191 598.686L746.181 598.689L746.172 598.692L746.162 598.695L746.153 598.697L746.143 598.7L746.133 598.703L746.124 598.706L745.646 598.853L745.792 599.331L749.64 611.89L744.757 613.386ZM744.162 594.011L744.308 594.486L744.784 594.343L744.64 593.864L744.784 594.343L744.784 594.343L744.784 594.343L744.786 594.343L744.791 594.341L744.813 594.335L744.895 594.31L745.193 594.221L746.136 593.939C746.847 593.725 747.632 593.489 747.922 593.401C750.388 592.645 752.024 591.342 752.872 589.673C753.717 588.009 753.739 586.06 753.135 584.089C752.567 582.234 751.494 580.706 749.941 579.829C748.382 578.949 746.406 578.763 744.112 579.466C743.202 579.745 742.316 580.045 741.659 580.275C741.33 580.389 741.058 580.487 740.868 580.556C740.773 580.59 740.698 580.618 740.648 580.636L740.589 580.658L740.574 580.664L740.57 580.665L740.569 580.665L740.569 580.666L740.569 580.666L740.743 581.134L740.569 580.666L740.127 580.83L740.265 581.281L744.162 594.011Z" stroke="black"/>
</g>
<g filter="url(#filter13_f_65_25)">
<path d="M767.5 599.858C767.438 599.654 767.62 599.459 767.825 599.519C769.131 599.912 771.712 600.479 775.12 599.435C777.344 598.753 778.458 597.365 777.979 595.803C777.45 594.073 774.688 593.547 772.4 593.084C770.124 592.623 765.221 592.266 763.545 586.793C762.059 581.942 765.039 577.828 770.318 576.211C772.341 575.591 774.668 575.222 776.342 575.309C776.617 575.324 776.841 575.519 776.922 575.783L778.432 580.712C778.494 580.914 778.321 581.111 778.117 581.051C776.984 580.723 774.612 580.416 771.746 581.294C769.36 582.025 768.666 583.508 769.029 584.692C769.664 586.765 772.692 586.786 775.616 587.481C780.141 588.448 782.577 590.001 783.586 593.295C785.236 598.682 782.146 602.937 776.706 604.604C773.896 605.464 771.066 605.661 769.464 605.253C769.241 605.196 769.083 605.018 769.016 604.799L767.5 599.858Z" fill="#6272A4"/>
<path d="M772.499 592.594L772.499 592.594C772.281 592.549 772.045 592.507 771.794 592.461C769.325 592.013 765.452 591.311 764.023 586.646C763.323 584.36 763.677 582.275 764.811 580.566C765.953 578.846 767.909 577.472 770.465 576.689C772.451 576.081 774.718 575.725 776.316 575.809L776.342 575.309L776.315 575.809C776.357 575.811 776.417 575.842 776.444 575.93L777.833 580.463C776.516 580.167 774.257 580.002 771.6 580.816C770.333 581.204 769.455 581.81 768.947 582.537C768.434 583.27 768.324 584.096 768.551 584.838C768.946 586.129 770.085 586.721 771.324 587.083C771.952 587.267 772.647 587.403 773.35 587.535C773.444 587.553 773.537 587.57 773.63 587.588C774.251 587.703 774.878 587.82 775.5 587.968L775.5 587.968L775.511 587.97C777.746 588.448 779.41 589.06 780.631 589.924C781.835 590.776 782.633 591.893 783.108 593.441C783.893 596.006 783.545 598.263 782.384 600.075C781.216 601.898 779.195 603.318 776.559 604.126C773.794 604.973 771.065 605.144 769.587 604.768C769.573 604.764 769.558 604.757 769.543 604.741C769.526 604.723 769.507 604.694 769.494 604.653L769.494 604.652L768.103 600.117C769.561 600.504 772.067 600.893 775.266 599.913C776.439 599.554 777.375 598.992 777.955 598.259C778.549 597.509 778.747 596.602 778.457 595.657C778.122 594.561 777.105 593.921 776.03 593.503C774.988 593.097 773.746 592.846 772.652 592.624C772.601 592.614 772.55 592.604 772.499 592.594Z" stroke="black"/>
</g>
<g filter="url(#filter14_f_65_25)">
<path d="M359.092 718.319C357.384 715.096 358.745 711.166 362.131 709.541L405.045 688.943C408.43 687.318 412.56 688.613 414.267 691.835L435.908 732.681C437.616 735.904 436.255 739.834 432.869 741.459L389.955 762.057C386.57 763.682 382.44 762.387 380.733 759.165L359.092 718.319Z" fill="#53618B"/>
<path d="M359.542 718.102C357.971 715.136 359.215 711.494 362.365 709.983L405.279 689.384C408.428 687.873 412.245 689.085 413.816 692.052L435.458 732.898C437.029 735.864 435.785 739.506 432.635 741.017L389.721 761.616C386.572 763.127 382.755 761.915 381.184 758.949L359.542 718.102Z" stroke="black"/>
</g>
<g filter="url(#filter15_f_65_25)">
<path d="M362.917 714.653L386.104 758.417L432.083 736.347L408.896 692.583L362.917 714.653ZM388.198 725.747L387.357 717.216L392.401 714.795L392.732 727.538L403.511 735.48L398.407 737.93L391.572 732.115L392.436 740.796L387.332 743.246L387.03 730.275L376.446 722.453L381.49 720.032L388.198 725.747ZM400.241 726.794C398.902 724.267 398.352 722.167 398.591 720.492C398.83 718.816 399.807 717.568 401.525 716.743C402.771 716.145 404.082 716.16 405.453 716.788L401.362 709.067L405.627 707.019L417.221 728.901L413.374 730.748L412.349 729.274C412.136 730.926 411.345 732.08 409.977 732.737C408.282 733.55 406.66 733.555 405.112 732.748C403.564 731.941 402.146 730.347 400.859 727.965L400.241 726.794ZM405.028 725.764C405.833 727.284 406.564 728.265 407.224 728.704C407.883 729.144 408.617 729.17 409.424 728.783C410.263 728.38 410.707 727.721 410.759 726.803L407.031 719.765C406.209 719.206 405.379 719.129 404.542 719.531C403.763 719.905 403.353 720.477 403.311 721.247C403.269 722.017 403.653 723.169 404.463 724.698L405.028 725.764Z" fill="#21242E"/>
<path d="M392.198 733.295L398.077 738.296L398.337 738.518L398.641 738.372L403.745 735.922L404.468 735.575L403.812 735.091L393.233 727.297L392.909 714.794L392.889 714.007L392.167 714.353L387.123 716.774L386.819 716.92L386.852 717.251L387.572 724.567L381.821 719.666L381.56 719.444L381.256 719.59L376.212 722.011L375.49 722.358L376.144 722.842L386.528 730.515L386.824 743.245L386.843 744.035L387.566 743.688L392.67 741.238L392.974 741.092L392.941 740.76L392.198 733.295ZM401.128 708.625L400.677 708.841L400.911 709.283L404.432 715.928C403.356 715.695 402.302 715.816 401.291 716.301C399.444 717.188 398.352 718.562 398.088 720.413C397.828 722.236 398.432 724.447 399.79 727.01L400.408 728.18L400.41 728.185C401.72 730.609 403.2 732.305 404.88 733.18C406.59 734.072 408.387 734.054 410.212 733.179C411.396 732.61 412.188 731.704 412.594 730.497L412.955 731.016L413.209 731.381L413.608 731.19L417.455 729.343L417.906 729.127L417.672 728.685L406.078 706.803L405.844 706.361L405.393 706.578L401.128 708.625ZM386.321 757.759L363.602 714.879L408.68 693.242L431.399 736.122L386.321 757.759ZM407.505 728.301C406.963 727.94 406.282 727.064 405.479 725.548L404.914 724.481C404.107 722.958 403.784 721.911 403.818 721.284C403.85 720.708 404.138 720.279 404.776 719.973C405.122 719.807 405.446 719.749 405.755 719.778C406.035 719.804 406.329 719.904 406.641 720.098L410.241 726.893C410.168 727.569 409.828 728.035 409.19 728.341C408.517 728.664 407.985 728.621 407.505 728.301Z" stroke="black"/>
</g>
</g>
<defs>
<filter id="filter0_d_65_25" x="258.355" y="193" width="1352.75" height="677.621" filterUnits="userSpaceOnUse" color-interpolation-filters="sRGB">
<feFlood flood-opacity="0" result="BackgroundImageFix"/>
<feColorMatrix in="SourceAlpha" type="matrix" values="0 0 0 0 0 0 0 0 0 0 0 0 0 0 0 0 0 0 127 0" result="hardAlpha"/>
<feOffset dy="4"/>
<feGaussianBlur stdDeviation="50"/>
<feComposite in2="hardAlpha" operator="out"/>
<feColorMatrix type="matrix" values="0 0 0 0 0 0 0 0 0 0 0 0 0 0 0 0 0 0 0.25 0"/>
<feBlend mode="normal" in2="BackgroundImageFix" result="effect1_dropShadow_65_25"/>
<feBlend mode="normal" in="SourceGraphic" in2="effect1_dropShadow_65_25" result="shape"/>
</filter>
<filter id="filter1_f_65_25" x="824.695" y="623.695" width="129.385" height="134.693" filterUnits="userSpaceOnUse" color-interpolation-filters="sRGB">
<feFlood flood-opacity="0" result="BackgroundImageFix"/>
<feBlend mode="normal" in="SourceGraphic" in2="BackgroundImageFix" result="shape"/>
<feGaussianBlur stdDeviation="2" result="effect1_foregroundBlur_65_25"/>
</filter>
<filter id="filter2_f_65_25" x="534.432" y="678.389" width="103.43" height="91.7704" filterUnits="userSpaceOnUse" color-interpolation-filters="sRGB">
<feFlood flood-opacity="0" result="BackgroundImageFix"/>
<feBlend mode="normal" in="SourceGraphic" in2="BackgroundImageFix" result="shape"/>
<feGaussianBlur stdDeviation="2" result="effect1_foregroundBlur_65_25"/>
</filter>
<filter id="filter3_f_65_25" x="576.392" y="704.039" width="23.1323" height="27.6823" filterUnits="userSpaceOnUse" color-interpolation-filters="sRGB">
<feFlood flood-opacity="0" result="BackgroundImageFix"/>
<feBlend mode="normal" in="SourceGraphic" in2="BackgroundImageFix" result="shape"/>
<feGaussianBlur stdDeviation="2" result="effect1_foregroundBlur_65_25"/>
</filter>
<filter id="filter4_f_65_25" x="1061" y="301" width="127.173" height="127.173" filterUnits="userSpaceOnUse" color-interpolation-filters="sRGB">
<feFlood flood-opacity="0" result="BackgroundImageFix"/>
<feBlend mode="normal" in="SourceGraphic" in2="BackgroundImageFix" result="shape"/>
<feGaussianBlur stdDeviation="2" result="effect1_foregroundBlur_65_25"/>
</filter>
<filter id="filter5_f_65_25" x="964" y="502" width="131.133" height="131.133" filterUnits="userSpaceOnUse" color-interpolation-filters="sRGB">
<feFlood flood-opacity="0" result="BackgroundImageFix"/>
<feBlend mode="normal" in="SourceGraphic" in2="BackgroundImageFix" result="shape"/>
<feGaussianBlur stdDeviation="2" result="effect1_foregroundBlur_65_25"/>
</filter>
<filter id="filter6_f_65_25" x="1393" y="285" width="108" height="108" filterUnits="userSpaceOnUse" color-interpolation-filters="sRGB">
<feFlood flood-opacity="0" result="BackgroundImageFix"/>
<feBlend mode="normal" in="SourceGraphic" in2="BackgroundImageFix" result="shape"/>
<feGaussianBlur stdDeviation="2" result="effect1_foregroundBlur_65_25"/>
</filter>
<filter id="filter7_f_65_25" x="1127.21" y="628.982" width="87.3279" height="85.6406" filterUnits="userSpaceOnUse" color-interpolation-filters="sRGB">
<feFlood flood-opacity="0" result="BackgroundImageFix"/>
<feBlend mode="normal" in="SourceGraphic" in2="BackgroundImageFix" result="shape"/>
<feGaussianBlur stdDeviation="2" result="effect1_foregroundBlur_65_25"/>
</filter>
<filter id="filter8_f_65_25" x="1226" y="467" width="121.026" height="119.884" filterUnits="userSpaceOnUse" color-interpolation-filters="sRGB">
<feFlood flood-opacity="0" result="BackgroundImageFix"/>
<feBlend mode="normal" in="SourceGraphic" in2="BackgroundImageFix" result="shape"/>
<feGaussianBlur stdDeviation="2" result="effect1_foregroundBlur_65_25"/>
</filter>
<filter id="filter9_f_65_25" x="1407.11" y="662.13" width="107.993" height="108.491" filterUnits="userSpaceOnUse" color-interpolation-filters="sRGB">
<feFlood flood-opacity="0" result="BackgroundImageFix"/>
<feBlend mode="normal" in="SourceGraphic" in2="BackgroundImageFix" result="shape"/>
<feGaussianBlur stdDeviation="2" result="effect1_foregroundBlur_65_25"/>
</filter>
<filter id="filter10_f_65_25" x="708.358" y="539.359" width="102.456" height="102.456" filterUnits="userSpaceOnUse" color-interpolation-filters="sRGB">
<feFlood flood-opacity="0" result="BackgroundImageFix"/>
<feBlend mode="normal" in="SourceGraphic" in2="BackgroundImageFix" result="shape"/>
<feGaussianBlur stdDeviation="2" result="effect1_foregroundBlur_65_25"/>
</filter>
<filter id="filter11_f_65_25" x="712.86" y="543.86" width="93.4534" height="93.4532" filterUnits="userSpaceOnUse" color-interpolation-filters="sRGB">
<feFlood flood-opacity="0" result="BackgroundImageFix"/>
<feBlend mode="normal" in="SourceGraphic" in2="BackgroundImageFix" result="shape"/>
<feGaussianBlur stdDeviation="2" result="effect1_foregroundBlur_65_25"/>
</filter>
<filter id="filter12_f_65_25" x="729.457" y="569.828" width="33.8704" height="48.082" filterUnits="userSpaceOnUse" color-interpolation-filters="sRGB">
<feFlood flood-opacity="0" result="BackgroundImageFix"/>
<feBlend mode="normal" in="SourceGraphic" in2="BackgroundImageFix" result="shape"/>
<feGaussianBlur stdDeviation="2" result="effect1_foregroundBlur_65_25"/>
</filter>
<filter id="filter13_f_65_25" x="759.163" y="571.297" width="28.8669" height="38.1603" filterUnits="userSpaceOnUse" color-interpolation-filters="sRGB">
<feFlood flood-opacity="0" result="BackgroundImageFix"/>
<feBlend mode="normal" in="SourceGraphic" in2="BackgroundImageFix" result="shape"/>
<feGaussianBlur stdDeviation="2" result="effect1_foregroundBlur_65_25"/>
</filter>
<filter id="filter14_f_65_25" x="354.355" y="684.241" width="86.2905" height="82.5175" filterUnits="userSpaceOnUse" color-interpolation-filters="sRGB">
<feFlood flood-opacity="0" result="BackgroundImageFix"/>
<feBlend mode="normal" in="SourceGraphic" in2="BackgroundImageFix" result="shape"/>
<feGaussianBlur stdDeviation="2" result="effect1_foregroundBlur_65_25"/>
</filter>
<filter id="filter15_f_65_25" x="358.917" y="688.583" width="77.1667" height="73.8334" filterUnits="userSpaceOnUse" color-interpolation-filters="sRGB">
<feFlood flood-opacity="0" result="BackgroundImageFix"/>
<feBlend mode="normal" in="SourceGraphic" in2="BackgroundImageFix" result="shape"/>
<feGaussianBlur stdDeviation="2" result="effect1_foregroundBlur_65_25"/>
</filter>
<clipPath id="clip0_65_25">
<rect x="830" y="662.47" width="88.2107" height="97.9373" transform="rotate(-22.2989 830 662.47)" fill="white"/>
</clipPath>
<clipPath id="clip1_65_25">
<rect x="968" y="532.788" width="100" height="100" transform="rotate(-15.538 968 532.788)" fill="white"/>
</clipPath>
</defs>
</svg>
